<svg width="40" height="40" viewBox="0 0 40 40" fill="none" xmlns="http://www.w3.org/2000/svg">
    <rect width="40" height="40" rx="20" fill="#F8F8F8"/>
    <path d="M19.1432 12.4237C19.5319 11.7779 20.4682 11.7779 20.8568 12.4237L22.744 15.5595C22.8836 15.7916 23.1114 15.957 23.3752 16.0181L26.9407 16.8439C27.675 17.014 27.9644 17.9044 27.4703 18.4736L25.0711 21.2375C24.8935 21.442 24.8066 21.7097 24.83 21.9795L25.1464 25.6257C25.2116 26.3766 24.4541 26.927 23.7601 26.6329L20.3901 25.2052C20.1408 25.0996 19.8593 25.0996 19.6099 25.2052L16.24 26.6329C15.5459 26.927 14.7884 26.3766 14.8536 25.6257L15.1701 21.9795C15.1935 21.7097 15.1065 21.442 14.929 21.2375L12.5298 18.4736C12.0357 17.9044 12.325 17.014 13.0593 16.8439L16.6248 16.0181C16.8887 15.957 17.1164 15.7916 17.256 15.5595L19.1432 12.4237Z" stroke="#171717" stroke-width="2"/>
</svg>
