<svg width="24" height="24" viewBox="0 0 24 24" fill="none" xmlns="http://www.w3.org/2000/svg">
<path d="M3.81214 13.0657L3.4262 13.3836L3.81214 13.0657ZM20.1882 10.9343L19.8023 11.2522L20.1882 10.9343ZM3.81214 10.9343L4.19809 11.2522H4.19809L3.81214 10.9343ZM20.1882 13.0657L19.8023 12.7478V12.7478L20.1882 13.0657ZM18.6441 14.0336C18.4503 14.2303 18.4526 14.5469 18.6493 14.7407C18.8459 14.9346 19.1625 14.9323 19.3564 14.7356L18.6441 14.0336ZM10.9225 5.58554C10.6497 5.62851 10.4634 5.88447 10.5063 6.15725C10.5493 6.43003 10.8053 6.61633 11.078 6.57336L10.9225 5.58554ZM12.0002 17.5C10.3283 17.5 8.73833 16.7599 7.3673 15.7735C6.00023 14.79 4.89322 13.5918 4.19809 12.7478L3.4262 13.3836C4.15116 14.2638 5.3203 15.5327 6.78329 16.5853C8.24232 17.635 10.0363 18.5 12.0002 18.5V17.5ZM12.0002 6.5C13.672 6.5 15.262 7.24007 16.633 8.22646C18.0001 9.21001 19.1071 10.4082 19.8023 11.2522L20.5742 10.6164C19.8492 9.73623 18.68 8.46727 17.2171 7.41472C15.758 6.365 13.9641 5.5 12.0002 5.5V6.5ZM4.19809 12.7478C3.83371 12.3054 3.83371 11.6946 4.19809 11.2522L3.4262 10.6164C2.75767 11.4281 2.75767 12.5719 3.4262 13.3836L4.19809 12.7478ZM20.5742 13.3836C21.2427 12.5719 21.2427 11.4281 20.5742 10.6164L19.8023 11.2522C20.1666 11.6946 20.1666 12.3054 19.8023 12.7478L20.5742 13.3836ZM19.8023 12.7478C19.4943 13.1218 19.1038 13.5673 18.6441 14.0336L19.3564 14.7356C19.8403 14.2446 20.2506 13.7764 20.5742 13.3836L19.8023 12.7478ZM16.0664 16.1581C14.8288 16.9478 13.4446 17.5 12.0002 17.5V18.5C13.6992 18.5 15.2702 17.8524 16.6043 17.0012L16.0664 16.1581ZM4.19809 11.2522C4.93726 10.3547 6.14056 9.05873 7.62588 8.04522L7.06224 7.2192C5.46809 8.30698 4.19596 9.68184 3.4262 10.6164L4.19809 11.2522ZM11.078 6.57336C11.382 6.52548 11.6896 6.5 12.0002 6.5V5.5C11.6348 5.5 11.2751 5.53 10.9225 5.58554L11.078 6.57336Z" fill="#171717"/>
<path d="M3 3L21 21" stroke="#171717" stroke-width="2" stroke-linecap="round" stroke-linejoin="round"/>
<path d="M11.2239 14.8977C10.7152 14.7614 10.2514 14.4936 9.879 14.1212C9.50663 13.7489 9.23884 13.285 9.10254 12.7764" stroke="#171717" stroke-linecap="round"/>
</svg>
