<svg width="18" height="18" viewBox="0 0 18 18" fill="none" xmlns="http://www.w3.org/2000/svg">
<path d="M8.14321 2.4237C8.53187 1.77788 9.46816 1.77788 9.85682 2.4237L11.744 5.55954C11.8836 5.79155 12.1114 5.95702 12.3752 6.01812L15.9407 6.8439C16.675 7.01397 16.9644 7.90444 16.4703 8.47365L14.0711 11.2375C13.8935 11.442 13.8066 11.7097 13.83 11.9795L14.1464 15.6257C14.2116 16.3766 13.4541 16.927 12.7601 16.6329L9.3901 15.2052C9.14077 15.0996 8.85926 15.0996 8.60992 15.2052L5.23996 16.6329C4.54592 16.927 3.78845 16.3766 3.85362 15.6257L4.17006 11.9795C4.19347 11.7097 4.10648 11.442 3.92897 11.2375L1.52978 8.47365C1.03567 7.90444 1.325 7.01397 2.05931 6.8439L5.62485 6.01812C5.88865 5.95702 6.1164 5.79155 6.25603 5.55954L8.14321 2.4237Z" stroke="#171717" stroke-width="2"/>
</svg>
