<svg width="24" height="24" viewBox="0 0 24 24" fill="none" xmlns="http://www.w3.org/2000/svg">
    <path d="M20.1882 10.9343C20.7047 11.5613 20.7047 12.4387 20.1882 13.0657C18.7681 14.7899 15.6359 18 12.0002 18C8.36444 18 5.23223 14.7899 3.81214 13.0657C3.29569 12.4387 3.29569 11.5613 3.81214 10.9343C5.23224 9.21014 8.36444 6 12.0002 6C15.6359 6 18.7681 9.21014 20.1882 10.9343Z" stroke="#171717"/>
    <path d="M15 12C15 13.6569 13.6569 15 12 15C10.3431 15 9 13.6569 9 12C9 10.3431 10.3431 9 12 9C13.6569 9 15 10.3431 15 12Z" stroke="#171717"/>
</svg>
