<svg width="20" height="20" viewBox="0 0 20 20" fill="none" xmlns="http://www.w3.org/2000/svg">
    <path d="M2.5083 9.34998V13.0916C2.5083 16.8333 4.0083 18.3333 7.74997 18.3333H12.2416C15.9833 18.3333 17.4833 16.8333 17.4833 13.0916V9.34998" stroke="white" stroke-width="1.5" stroke-linecap="round" stroke-linejoin="round"/>
    <path d="M10.0002 9.99996C11.5252 9.99996 12.6502 8.75829 12.5002 7.23329L11.9502 1.66663H8.05857L7.50024 7.23329C7.35024 8.75829 8.47524 9.99996 10.0002 9.99996Z" stroke="white" stroke-width="1.5" stroke-linecap="round" stroke-linejoin="round"/>
    <path d="M15.2582 9.99996C16.9415 9.99996 18.1748 8.63329 18.0082 6.95829L17.7748 4.66663C17.4748 2.49996 16.6415 1.66663 14.4582 1.66663H11.9165L12.4998 7.50829C12.6415 8.88329 13.8832 9.99996 15.2582 9.99996Z" stroke="white" stroke-width="1.5" stroke-linecap="round" stroke-linejoin="round"/>
    <path d="M4.70015 9.99996C6.07515 9.99996 7.31681 8.88329 7.45015 7.50829L7.63348 5.66663L8.03348 1.66663H5.49181C3.30848 1.66663 2.47515 2.49996 2.17515 4.66663L1.95015 6.95829C1.78348 8.63329 3.01681 9.99996 4.70015 9.99996Z" stroke="white" stroke-width="1.5" stroke-linecap="round" stroke-linejoin="round"/>
    <path d="M9.99984 14.1666C8.60817 14.1666 7.9165 14.8583 7.9165 16.25V18.3333H12.0832V16.25C12.0832 14.8583 11.3915 14.1666 9.99984 14.1666Z" stroke="white" stroke-width="1.5" stroke-linecap="round" stroke-linejoin="round"/>
</svg>
