<svg width="20" height="21" viewBox="0 0 20 21" fill="none" xmlns="http://www.w3.org/2000/svg">
    <path d="M13.9104 9.06051C13.7091 8.51353 13.3952 8.01489 12.9891 7.59679C12.583 7.1787 12.0936 6.85047 11.5527 6.6333" stroke="#4B4B4B" stroke-linecap="round"/>
    <path d="M17.2447 8.55892C16.904 7.28725 16.2345 6.12768 15.3036 5.19676C14.3726 4.26583 13.2131 3.59636 11.9414 3.25562" stroke="#4B4B4B" stroke-linecap="round"/>
    <path fill-rule="evenodd" clip-rule="evenodd" d="M7.95432 7.70237C8.29053 8.91718 7.91236 10.1845 7.08375 10.9657C6.92665 11.1138 6.87601 11.3532 6.99944 11.5304C7.26217 11.9076 7.56098 12.2661 7.89604 12.6014C8.23059 12.9362 8.58825 13.2349 8.96453 13.4976C9.14218 13.6216 9.38234 13.5701 9.53023 13.4117C10.3101 12.5765 11.5811 12.1942 12.7993 12.5318C14.4412 12.9869 15.3653 14.5777 14.8633 16.0848C13.3925 20.5015 7.72954 16.1238 6.05292 14.4459C4.33578 12.7275 0.0254392 7.09711 4.40396 5.63675C5.91001 5.13441 7.49955 6.05923 7.95432 7.70237Z" stroke="#4B4B4B"/>
</svg>
